<svg width="96" height="48" viewBox="0 0 96 48" fill="none" xmlns="http://www.w3.org/2000/svg">
<path d="M39.3583 33.7178H44.1747V25.2795H51.8164V33.7178H56.6327V20.7581L47.9955 14.2822L39.3583 20.7607V33.7178ZM39.3583 36C38.7307 36 38.1935 35.7765 37.7466 35.3296C37.2996 34.8827 37.0762 34.3454 37.0762 33.7178V20.7581C37.0762 20.3977 37.1567 20.0563 37.3178 19.7339C37.4788 19.4115 37.7036 19.1449 37.9923 18.9339L46.6214 12.458C46.8333 12.308 47.0553 12.1942 47.2871 12.1165C47.519 12.0388 47.7576 12 48.0028 12C48.248 12 48.4848 12.0388 48.7132 12.1165C48.9416 12.1942 49.1605 12.308 49.3696 12.458L57.9988 18.9339C58.2869 19.1468 58.513 19.4141 58.6769 19.7359C58.8409 20.0577 58.9229 20.3984 58.9229 20.7581V33.7178C58.9229 34.3454 58.6987 34.8827 58.2501 35.3296C57.8016 35.7765 57.2625 36 56.6327 36H49.6223V27.4735H46.3687V36H39.3583Z" fill="#BCC0C7"/>
</svg>
