<svg width="16" height="16" viewBox="0 0 16 16" fill="none" xmlns="http://www.w3.org/2000/svg">
<path d="M11.8644 11.4C11.7288 11.2667 11.661 11.1037 11.661 10.9111C11.661 10.7185 11.7288 10.563 11.8644 10.4444L13.6723 8.66667H6.44068C6.24482 8.66667 6.08286 8.6037 5.9548 8.47778C5.82674 8.35185 5.76271 8.19259 5.76271 8C5.76271 7.80741 5.82674 7.64815 5.9548 7.52222C6.08286 7.3963 6.24482 7.33333 6.44068 7.33333H13.6271L11.7966 5.53333C11.6761 5.41482 11.6158 5.26296 11.6158 5.07778C11.6158 4.89259 11.6836 4.73333 11.8192 4.6C11.9548 4.46667 12.1168 4.4 12.3051 4.4C12.4934 4.4 12.6554 4.46667 12.791 4.6L15.7966 7.55556C15.8719 7.62963 15.9247 7.7037 15.9548 7.77778C15.9849 7.85185 16 7.93333 16 8.02222C16 8.11111 15.9849 8.19259 15.9548 8.26667C15.9247 8.34074 15.8719 8.41481 15.7966 8.48889L12.8136 11.4222C12.693 11.5407 12.5386 11.6 12.3503 11.6C12.162 11.6 12 11.5333 11.8644 11.4ZM1.35593 16C0.99435 16 0.677966 15.8667 0.40678 15.6C0.135593 15.3333 0 15.0222 0 14.6667V1.33333C0 0.977778 0.135593 0.666667 0.40678 0.4C0.677966 0.133333 0.99435 0 1.35593 0H7.25424C7.45009 0 7.61205 0.062963 7.74011 0.188889C7.86817 0.314815 7.9322 0.474074 7.9322 0.666667C7.9322 0.859259 7.86817 1.01852 7.74011 1.14444C7.61205 1.27037 7.45009 1.33333 7.25424 1.33333H1.35593V14.6667H7.25424C7.45009 14.6667 7.61205 14.7296 7.74011 14.8556C7.86817 14.9815 7.9322 15.1407 7.9322 15.3333C7.9322 15.5259 7.86817 15.6852 7.74011 15.8111C7.61205 15.937 7.45009 16 7.25424 16H1.35593Z" fill="#D92715"/>
</svg>
