<svg width="16" height="16" viewBox="0 0 16 16" fill="none" xmlns="http://www.w3.org/2000/svg">
<g clip-path="url(#clip0_186_5160)">
<path d="M3.24444 16C2.88889 16 2.57778 15.8667 2.31111 15.6C2.04444 15.3333 1.91111 15.0222 1.91111 14.6667V2H1.66667C1.47778 2 1.31944 1.93574 1.19167 1.80722C1.06389 1.67869 1 1.51943 1 1.32944C1 1.13944 1.06389 0.981481 1.19167 0.855556C1.31944 0.72963 1.47778 0.666667 1.66667 0.666667H5.17778C5.17778 0.474074 5.24167 0.314815 5.36944 0.188889C5.49722 0.062963 5.65556 0 5.84444 0H10.3778C10.5667 0 10.725 0.0638889 10.8528 0.191667C10.9806 0.319444 11.0444 0.477778 11.0444 0.666667H14.5556C14.7444 0.666667 14.9028 0.730926 15.0306 0.859445C15.1583 0.987978 15.2222 1.14724 15.2222 1.33722C15.2222 1.52722 15.1583 1.68519 15.0306 1.81111C14.9028 1.93704 14.7444 2 14.5556 2H14.3111V14.6667C14.3111 15.0222 14.1778 15.3333 13.9111 15.6C13.6444 15.8667 13.3333 16 12.9778 16H3.24444ZM3.24444 2V14.6667H12.9778V2H3.24444ZM5.6 12.0889C5.6 12.2778 5.66426 12.4361 5.79278 12.5639C5.92131 12.6917 6.08057 12.7556 6.27056 12.7556C6.46056 12.7556 6.61852 12.6917 6.74444 12.5639C6.87037 12.4361 6.93333 12.2778 6.93333 12.0889V4.55556C6.93333 4.36667 6.86907 4.20833 6.74056 4.08056C6.61202 3.95278 6.45276 3.88889 6.26278 3.88889C6.07278 3.88889 5.91481 3.95278 5.78889 4.08056C5.66296 4.20833 5.6 4.36667 5.6 4.55556V12.0889ZM9.28889 12.0889C9.28889 12.2778 9.35315 12.4361 9.48167 12.5639C9.6102 12.6917 9.76946 12.7556 9.95944 12.7556C10.1494 12.7556 10.3074 12.6917 10.4333 12.5639C10.5593 12.4361 10.6222 12.2778 10.6222 12.0889V4.55556C10.6222 4.36667 10.558 4.20833 10.4294 4.08056C10.3009 3.95278 10.1417 3.88889 9.95167 3.88889C9.76167 3.88889 9.6037 3.95278 9.47778 4.08056C9.35185 4.20833 9.28889 4.36667 9.28889 4.55556V12.0889Z" fill="#667085"/>
</g>
<defs>
<clipPath id="clip0_186_5160">
<rect width="16" height="16" fill="white"/>
</clipPath>
</defs>
</svg>
