<svg width="96" height="48" viewBox="0 0 96 48" fill="none" xmlns="http://www.w3.org/2000/svg">
<path d="M46.2283 29.751L43.8776 27.4253C43.7186 27.2729 43.6392 27.0911 43.6392 26.8798C43.6392 26.6686 43.7183 26.484 43.8765 26.326C44.0165 26.1847 44.1958 26.1141 44.4146 26.1141C44.6334 26.1141 44.8198 26.1847 44.974 26.326L46.825 28.1391L50.8816 24.0765C51.0399 23.9182 51.2233 23.8442 51.4317 23.8546C51.6402 23.8649 51.818 23.9492 51.9652 24.1074C52.1123 24.2657 52.1901 24.4484 52.1984 24.6557C52.2067 24.8629 52.1339 25.044 51.9799 25.1989L47.4218 29.751C47.2519 29.9209 47.0529 30.0059 46.825 30.0059C46.5971 30.0059 46.3982 29.9209 46.2283 29.751ZM40.5538 34.1494C40.0939 34.1494 39.695 33.9805 39.3572 33.6428C39.0195 33.305 38.8506 32.9061 38.8506 32.4461V17.0537C38.8506 16.5921 39.0195 16.1918 39.3572 15.8529C39.695 15.514 40.0939 15.3445 40.5538 15.3445H42.125V14.6983C42.125 14.4637 42.2081 14.2627 42.3741 14.0954C42.5402 13.9281 42.7421 13.8445 42.98 13.8445C43.2249 13.8445 43.4315 13.9281 43.5995 14.0954C43.7676 14.2627 43.8517 14.4637 43.8517 14.6983V15.3445H52.1484V14.6983C52.1484 14.4637 52.2314 14.2627 52.3975 14.0954C52.5636 13.9281 52.7655 13.8445 53.0034 13.8445C53.2483 13.8445 53.4548 13.9281 53.6229 14.0954C53.791 14.2627 53.875 14.4637 53.875 14.6983V15.3445H55.4462C55.9079 15.3445 56.3081 15.514 56.6471 15.8529C56.986 16.1918 57.1555 16.5921 57.1555 17.0537V32.4461C57.1555 32.9061 56.986 33.305 56.6471 33.6428C56.3081 33.9805 55.9079 34.1494 55.4462 34.1494H40.5538ZM40.5538 32.4461H55.4462V21.7499H40.5538V32.4461ZM40.5538 20.2499H55.4462V17.0537H40.5538V20.2499Z" fill="#BCC0C7"/>
</svg>
